PathFileType	4	(X/Y/Z)	C:\Users\WrightLab\Desktop\Jo\P3_25.trc
DataRate	CameraRate	NumFrames	NumMarkers	Units	OrigDataRate	OrigDataStartFrame	OrigNumFrames
100.00	100.00	       38	19	mm	100.00	504	       575
Frame#	Time	Headset_Front			Headset_Back			Headset_Left			Headset_Right			Left_Shoulder			Right_Shoulder			Sternum			C7			Left Elbow			Right Elbow			Left Wrist			Right Wrist			Left ASIS			Right ASIS			S2			Left Knee			Right Knee			Left Ankle			Right Ankle			
		X1	Y1	Z1	X2	Y2	Z2	X3	Y3	Z3	X4	Y4	Z4	X5	Y5	Z5	X6	Y6	Z6	X7	Y7	Z7	X8	Y8	Z8	X9	Y9	Z9	X10	Y10	Z10	X11	Y11	Z11	X12	Y12	Z12	X13	Y13	Z13	X14	Y14	Z14	X15	Y15	Z15	X16	Y16	Z16	X17	Y17	Z17	X18	Y18	Z18	X19	Y19	Z19	

504	5.030							-126.97025	1656.24915	2466.49585																																								-25.53684	492.64581	2345.98730	-172.30188	174.03503	2540.85596	44.17243	221.10432	2541.35547	
505	5.040							-128.37552	1656.81201	2468.60767																																								-23.27951	493.29916	2351.36279	-172.68335	173.83908	2540.78467	39.67434	221.19261	2548.92163	
506	5.050							-129.14497	1657.30383	2469.79834																																								-21.22008	493.13870	2357.75610	-173.28850	173.93628	2540.39429	37.07085	219.96559	2553.99170	
507	5.060							-130.41356	1657.76123	2471.92163																																								-19.72171	493.12799	2362.39990	-174.08932	174.49237	2540.23047	33.34781	217.48842	2559.76636	
508	5.070							-131.27885	1657.91956	2473.50830																																								-17.19458	493.21506	2369.14355	-174.28023	174.17963	2539.40283	30.15432	215.78868	2564.29785	
509	5.080							-131.89024	1658.29053	2474.57349																																								-15.74589	493.21750	2375.59204	-174.92856	174.42287	2539.56616	26.99037	213.93559	2566.71606	
510	5.090							-132.78027	1658.40991	2476.40674																																								-13.88998	493.02420	2382.66870	-175.05057	174.22658	2539.23779	23.59157	211.05557	2569.64697	
511	5.100							-133.60522	1658.71875	2478.39258																																								-13.07299	493.04153	2387.72656	-175.16986	174.32660	2538.85376	21.19655	208.56552	2572.36133	
512	5.110							-133.88354	1658.94177	2479.96631																																								-12.32463	492.22162	2392.83252	-175.31291	174.54167	2538.48926	18.39519	204.51735	2573.32593	
513	5.120							-134.35397	1659.05115	2482.27124																																								-11.52773	491.88330	2398.28638	-175.22015	174.54007	2538.00171	17.01082	202.53383	2576.18115	
514	5.130							-134.34340	1659.20862	2483.78296																																								-11.77635	492.06094	2403.53149	-175.33748	175.17728	2537.68140	15.65366	200.96370	2578.65430	
515	5.140							-134.75105	1659.13098	2485.66382																																								-11.16917	491.17535	2407.79956	-175.46237	175.63603	2537.56421	14.59837	199.31361	2581.19434	
516	5.150							-134.75255	1658.91638	2486.88745																																								-10.53872	491.42618	2412.22778	-175.91898	176.49840	2538.11230	14.35584	197.34256	2583.89355	
517	5.160							-134.58662	1658.85632	2488.15869																																								-10.31176	491.26208	2416.12769	-176.00226	177.13576	2536.80566	13.97599	196.73697	2585.02295	
518	5.170							-134.13120	1659.07532	2490.01050																																								-10.19627	491.10629	2420.40771	-176.43910	177.17310	2536.22485	13.90596	196.01634	2587.63501	
519	5.180							-133.65462	1659.05505	2491.73169																																								-10.46917	491.60962	2423.15576	-176.93045	177.42168	2535.55908	14.23615	195.26260	2588.98804	
520	5.190							-133.43184	1659.16895	2492.62598																																								-9.74374	491.30142	2426.91504	-177.21046	176.93233	2534.82813	14.42673	194.32101	2589.62549	
521	5.200							-132.67232	1659.13696	2494.15601																																								-8.76523	491.68344	2431.09326	-177.63568	177.00990	2534.67676	14.88194	193.10898	2590.13354	
522	5.210							-131.69788	1659.66541	2496.14185																																								-8.06294	491.85873	2434.36914	-177.74672	176.80243	2534.39453	16.02314	190.83507	2591.50220	
523	5.220							-131.24469	1659.52124	2497.17456																																								-7.22598	492.03748	2437.54810	-177.75375	176.68799	2533.85742	15.99525	189.98465	2591.95337	
524	5.230							-129.97955	1659.51868	2498.47046																																								-6.97961	492.40543	2439.68604	-178.03436	177.28194	2533.75464	16.63706	188.98715	2592.43774	
525	5.240							-129.03888	1659.94885	2500.31763																																								-6.27065	492.41852	2441.82739	-178.06772	177.26085	2533.64746	16.66844	188.24907	2593.21777	
526	5.250							-127.82925	1659.62488	2500.86865																																								-4.82555	491.82483	2445.29102	-178.05309	177.83189	2532.85742	16.14034	187.54587	2592.98218	
527	5.260							-126.60793	1660.20093	2503.14160																																								-4.48869	492.04202	2446.12378	-178.05310	177.87852	2532.83203	16.81933	187.24898	2593.42383	
528	5.270							-125.62743	1660.61682	2503.91309																																								-3.41674	492.43759	2449.31641	-177.80014	177.81284	2532.01685	16.86430	187.09213	2593.38916	
529	5.280							-123.88361	1660.97595	2505.27271																																								-1.92011	493.69534	2452.85303	-178.10413	178.47527	2532.18384	17.00735	186.81265	2593.48291	
530	5.290							-122.54784	1661.36511	2506.37573																																								-1.46241	494.10770	2453.12280	-178.11342	178.55206	2532.10913	16.69866	186.81552	2593.69092	
531	5.300							-121.27144	1661.94006	2507.51855																																								-0.91177	494.52963	2453.06006	-178.10780	178.71796	2532.03931	16.66745	186.95793	2594.15552	
532	5.310							-119.54767	1662.55469	2508.71460																																								1.03954	494.86484	2456.62012	-178.29477	179.17235	2532.10596	16.65323	187.11124	2594.32104	
533	5.320							-118.38536	1662.80908	2509.55200																																								1.91230	495.26797	2456.37354	-178.68195	180.37283	2532.37891	16.79394	187.32140	2594.21411	
534	5.330							-116.60373	1663.46436	2511.08032																																								2.97988	496.04791	2455.29126	-178.87486	180.77710	2532.72607	17.30755	187.24197	2594.00879	
535	5.340							-115.20731	1663.62683	2511.43921																																								3.81344	496.40408	2455.00684	-179.08867	181.28847	2532.93115	17.52703	187.39799	2593.92188	
536	5.350							-113.46121	1664.84851	2512.88550																																								5.86330	497.87140	2456.36353	-179.38420	182.13457	2532.82104	17.40555	187.25233	2593.80981	
537	5.360							-112.54948	1665.62708	2514.32178																																								7.27624	497.42401	2456.37891	-179.55652	182.74210	2532.20581	17.76024	187.51587	2593.48389	
538	5.370							-110.29721	1666.04626	2515.29346																																								8.65560	497.34515	2455.56787	-179.83958	182.94894	2531.92871	18.29717	187.69800	2593.27808	
539	5.380							-109.02405	1666.67139	2516.33496																																								9.64608	497.37476	2455.01147	-180.61595	183.53384	2531.98071	18.62994	187.91457	2592.87451	
540	5.390							-107.48998	1667.58655	2518.25830																																								10.36975	497.51941	2454.22168	-180.82509	183.18036	2531.43066	19.26572	188.13246	2593.94946	
541	5.400							-105.52740	1667.50500	2518.36182																																								11.06061	497.57660	2453.61353	-181.70590	184.09641	2531.07983	18.95610	188.09294	2593.32129	
